STARTFONT 2.1
COMMENT $XConsortium: luBIS12.bdf,v 1.8 94/04/02 15:58:32 gildea Exp $
COMMENT  (c) Copyright Bigelow & Holmes 1986, 1985. Lucida is a registered
COMMENT  trademark of Bigelow & Holmes. See LEGAL NOTICE file for terms 
COMMENT  of the license. 
COMMENT GRID 0012 0012 0200 0200
COMMENT  
COMMENT  Translation to ISO8859-2 by Cub Soft;  Petr.Kolar@vslib.cz
COMMENT  
FONT -B&H-Lucida-Bold-I-Normal-Sans-12-120-75-75-P-79-ISO8859-2
SIZE 12 72 72
FONTBOUNDINGBOX 17 13 -1 -2
STARTPROPERTIES 20
COMMENT Begin LogicalFontDescription
FONTNAME_REGISTRY ""
FOUNDRY "B&H"
FAMILY_NAME "Lucida"
WEIGHT_NAME "Bold"
SLANT "I"
SETWIDTH_NAME "Normal"
ADD_STYLE_NAME "Sans"
PIXEL_SIZE 12
POINT_SIZE 120
RESOLUTION_X 75
RESOLUTION_Y 75
SPACING "P"
AVERAGE_WIDTH 79
CHARSET_REGISTRY "ISO8859"
CHARSET_ENCODING "2"
COMMENT END LogicalFontDescription
FONT_ASCENT 11
FONT_DESCENT 2
DEFAULT_CHAR 0
COPYRIGHT "Copyright Bigelow & Holmes 1986, 1985., Copyright 1996 Cub Soft"
FACE_NAME "Lucida Sans Bold Italic"
ENDPROPERTIES
CHARS 191
STARTCHAR space
ENCODING 32
SWIDTH 343 0
DWIDTH 4 0
BBX 1 1 0 0
BITMAP
00
ENDCHAR
STARTCHAR exclam
ENCODING 33
SWIDTH 343 0
DWIDTH 4 0
BBX 4 9 1 0
BITMAP
30
30
30
60
60
60
00
c0
c0
ENDCHAR
STARTCHAR quotedbl
ENCODING 34
SWIDTH 530 0
DWIDTH 7 0
BBX 5 4 2 6
BITMAP
d8
d8
90
90
ENDCHAR
STARTCHAR numbersign
ENCODING 35
SWIDTH 687 0
DWIDTH 8 0
BBX 9 9 0 0
BITMAP
1b00
1b00
7f80
3600
3600
3600
ff00
6c00
6c00
ENDCHAR
STARTCHAR dollar
ENCODING 36
SWIDTH 687 0
DWIDTH 8 0
BBX 7 11 1 -1
BITMAP
08
3e
68
68
78
38
3c
2c
2c
f8
20
ENDCHAR
STARTCHAR percent
ENCODING 37
SWIDTH 908 0
DWIDTH 11 0
BBX 9 9 1 0
BITMAP
7180
db00
da00
7400
0800
1700
2d80
6d80
c700
ENDCHAR
STARTCHAR ampersand
ENCODING 38
SWIDTH 816 0
DWIDTH 10 0
BBX 9 9 1 0
BITMAP
3c00
6600
6600
3400
7980
d980
cd00
ce00
7b00
ENDCHAR
STARTCHAR apostrophe
ENCODING 39
SWIDTH 265 0
DWIDTH 3 0
BBX 3 4 1 5
BITMAP
60
60
40
80
ENDCHAR
STARTCHAR parenleft
ENCODING 40
SWIDTH 386 0
DWIDTH 5 0
BBX 5 11 1 -1
BITMAP
18
30
60
60
c0
c0
c0
c0
c0
c0
60
ENDCHAR
STARTCHAR parenright
ENCODING 41
SWIDTH 386 0
DWIDTH 5 0
BBX 5 11 0 -1
BITMAP
30
18
18
18
18
18
18
30
30
60
c0
ENDCHAR
STARTCHAR asterisk
ENCODING 42
SWIDTH 464 0
DWIDTH 6 0
BBX 6 5 0 4
BITMAP
10
94
78
a4
20
ENDCHAR
STARTCHAR plus
ENCODING 43
SWIDTH 687 0
DWIDTH 9 0
BBX 8 7 1 1
BITMAP
08
08
08
ff
10
10
10
ENDCHAR
STARTCHAR comma
ENCODING 44
SWIDTH 343 0
DWIDTH 3 0
BBX 3 4 0 -2
BITMAP
60
60
40
80
ENDCHAR
STARTCHAR minus
ENCODING 45
SWIDTH 687 0
DWIDTH 9 0
BBX 7 1 2 4
BITMAP
fe
ENDCHAR
STARTCHAR period
ENCODING 46
SWIDTH 343 0
DWIDTH 3 0
BBX 2 2 1 0
BITMAP
c0
c0
ENDCHAR
STARTCHAR slash
ENCODING 47
SWIDTH 596 0
DWIDTH 7 0
BBX 7 11 0 -1
BITMAP
06
06
0c
0c
18
38
30
60
60
c0
c0
ENDCHAR
STARTCHAR zero
ENCODING 48
SWIDTH 687 0
DWIDTH 8 0
BBX 7 9 1 0
BITMAP
3c
66
66
66
c6
cc
cc
cc
78
ENDCHAR
STARTCHAR one
ENCODING 49
SWIDTH 687 0
DWIDTH 8 0
BBX 4 9 2 0
BITMAP
30
f0
30
30
70
60
60
60
60
ENDCHAR
STARTCHAR two
ENCODING 50
SWIDTH 687 0
DWIDTH 8 0
BBX 7 9 1 0
BITMAP
3c
66
06
0e
1c
30
40
fc
fc
ENDCHAR
STARTCHAR three
ENCODING 51
SWIDTH 687 0
DWIDTH 8 0
BBX 7 9 1 0
BITMAP
3c
66
06
0c
38
0c
0c
cc
78
ENDCHAR
STARTCHAR four
ENCODING 52
SWIDTH 687 0
DWIDTH 8 0
BBX 7 9 1 0
BITMAP
0c
1c
2c
4c
8c
fe
18
18
18
ENDCHAR
STARTCHAR five
ENCODING 53
SWIDTH 687 0
DWIDTH 8 0
BBX 7 9 1 0
BITMAP
3e
3e
40
78
1c
0c
0c
d8
70
ENDCHAR
STARTCHAR six
ENCODING 54
SWIDTH 687 0
DWIDTH 8 0
BBX 7 9 1 0
BITMAP
1c
36
60
60
78
cc
cc
cc
78
ENDCHAR
STARTCHAR seven
ENCODING 55
SWIDTH 687 0
DWIDTH 8 0
BBX 7 9 1 0
BITMAP
7e
7e
06
0c
18
30
60
e0
c0
ENDCHAR
STARTCHAR eight
ENCODING 56
SWIDTH 687 0
DWIDTH 8 0
BBX 7 9 1 0
BITMAP
3c
66
66
34
38
4c
cc
cc
78
ENDCHAR
STARTCHAR nine
ENCODING 57
SWIDTH 687 0
DWIDTH 8 0
BBX 7 9 1 0
BITMAP
3c
66
66
66
3c
0c
0c
d8
70
ENDCHAR
STARTCHAR colon
ENCODING 58
SWIDTH 343 0
DWIDTH 4 0
BBX 3 7 1 0
BITMAP
60
60
00
00
00
c0
c0
ENDCHAR
STARTCHAR semicolon
ENCODING 59
SWIDTH 343 0
DWIDTH 4 0
BBX 4 9 0 -2
BITMAP
30
30
00
00
00
60
60
40
80
ENDCHAR
STARTCHAR less
ENCODING 60
SWIDTH 687 0
DWIDTH 9 0
BBX 7 8 1 0
BITMAP
06
0c
38
60
c0
60
38
0c
ENDCHAR
STARTCHAR equal
ENCODING 61
SWIDTH 687 0
DWIDTH 9 0
BBX 8 3 1 3
BITMAP
7f
00
fe
ENDCHAR
STARTCHAR greater
ENCODING 62
SWIDTH 687 0
DWIDTH 9 0
BBX 7 8 1 0
BITMAP
60
38
0c
06
0c
38
60
c0
ENDCHAR
STARTCHAR question
ENCODING 63
SWIDTH 539 0
DWIDTH 7 0
BBX 6 9 1 0
BITMAP
78
0c
0c
38
60
60
00
c0
c0
ENDCHAR
STARTCHAR at
ENCODING 64
SWIDTH 833 0
DWIDTH 10 0
BBX 9 9 1 0
BITMAP
0f00
3180
6780
4980
db00
db00
cd00
6000
3e00
ENDCHAR
STARTCHAR A
ENCODING 65
SWIDTH 771 0
DWIDTH 9 0
BBX 8 9 0 0
BITMAP
03
07
0f
1b
33
3f
63
c3
c3
ENDCHAR
STARTCHAR B
ENCODING 66
SWIDTH 660 0
DWIDTH 8 0
BBX 7 9 1 0
BITMAP
7c
66
66
6c
fc
c6
c6
cc
f8
ENDCHAR
STARTCHAR C
ENCODING 67
SWIDTH 737 0
DWIDTH 9 0
BBX 8 9 1 0
BITMAP
0e
3b
60
60
c0
c0
c0
e2
7c
ENDCHAR
STARTCHAR D
ENCODING 68
SWIDTH 822 0
DWIDTH 10 0
BBX 9 9 1 0
BITMAP
7f00
6380
6180
6180
e180
c300
c300
ce00
f800
ENDCHAR
STARTCHAR E
ENCODING 69
SWIDTH 642 0
DWIDTH 8 0
BBX 7 9 1 0
BITMAP
7e
60
60
60
f8
c0
c0
c0
fc
ENDCHAR
STARTCHAR F
ENCODING 70
SWIDTH 614 0
DWIDTH 7 0
BBX 7 9 1 0
BITMAP
7e
60
60
60
fc
c0
c0
c0
c0
ENDCHAR
STARTCHAR G
ENCODING 71
SWIDTH 755 0
DWIDTH 9 0
BBX 8 9 1 0
BITMAP
0e
3b
60
60
c0
c6
c6
e6
7e
ENDCHAR
STARTCHAR H
ENCODING 72
SWIDTH 813 0
DWIDTH 10 0
BBX 8 9 1 0
BITMAP
63
63
63
63
ff
c6
c6
c6
c6
ENDCHAR
STARTCHAR I
ENCODING 73
SWIDTH 361 0
DWIDTH 5 0
BBX 3 9 1 0
BITMAP
60
60
60
60
e0
c0
c0
c0
c0
ENDCHAR
STARTCHAR J
ENCODING 74
SWIDTH 502 0
DWIDTH 6 0
BBX 6 11 -1 -2
BITMAP
0c
0c
0c
0c
1c
18
18
18
18
38
f0
ENDCHAR
STARTCHAR K
ENCODING 75
SWIDTH 753 0
DWIDTH 9 0
BBX 8 9 1 0
BITMAP
63
66
6c
78
f0
d8
cc
cc
c6
ENDCHAR
STARTCHAR L
ENCODING 76
SWIDTH 623 0
DWIDTH 8 0
BBX 6 9 2 0
BITMAP
60
60
60
60
e0
c0
c0
c0
fc
ENDCHAR
STARTCHAR M
ENCODING 77
SWIDTH 940 0
DWIDTH 12 0
BBX 10 9 1 0
BITMAP
79c0
79c0
6ac0
6ec0
6cc0
cd80
c980
c180
c180
ENDCHAR
STARTCHAR N
ENCODING 78
SWIDTH 789 0
DWIDTH 10 0
BBX 8 9 1 0
BITMAP
61
71
71
7b
5a
ce
8e
86
86
ENDCHAR
STARTCHAR O
ENCODING 79
SWIDTH 855 0
DWIDTH 11 0
BBX 9 9 1 0
BITMAP
0f00
3380
6180
6180
c180
c300
c300
e600
7800
ENDCHAR
STARTCHAR P
ENCODING 80
SWIDTH 645 0
DWIDTH 8 0
BBX 7 9 1 0
BITMAP
7c
66
66
66
cc
f8
c0
c0
c0
ENDCHAR
STARTCHAR Q
ENCODING 81
SWIDTH 855 0
DWIDTH 11 0
BBX 9 11 1 -2
BITMAP
0f00
3380
6180
6180
c180
c300
c300
e600
7800
0e00
0380
ENDCHAR
STARTCHAR R
ENCODING 82
SWIDTH 708 0
DWIDTH 9 0
BBX 7 9 1 0
BITMAP
7c
66
66
6c
f8
d8
cc
ce
c6
ENDCHAR
STARTCHAR S
ENCODING 83
SWIDTH 639 0
DWIDTH 8 0
BBX 7 9 1 0
BITMAP
3c
66
60
70
38
1c
0c
cc
78
ENDCHAR
STARTCHAR T
ENCODING 84
SWIDTH 747 0
DWIDTH 9 0
BBX 8 9 1 0
BITMAP
ff
18
18
18
38
30
30
30
30
ENDCHAR
STARTCHAR U
ENCODING 85
SWIDTH 759 0
DWIDTH 9 0
BBX 8 9 1 0
BITMAP
63
63
63
63
e6
c6
c6
ec
78
ENDCHAR
STARTCHAR V
ENCODING 86
SWIDTH 765 0
DWIDTH 9 0
BBX 7 9 2 0
BITMAP
c6
c6
c6
cc
cc
d8
d0
e0
c0
ENDCHAR
STARTCHAR W
ENCODING 87
SWIDTH 991 0
DWIDTH 12 0
BBX 10 9 2 0
BITMAP
c0c0
ccc0
ccc0
cc80
dd80
dd00
ed00
ee00
cc00
ENDCHAR
STARTCHAR X
ENCODING 88
SWIDTH 696 0
DWIDTH 9 0
BBX 9 9 0 0
BITMAP
7180
3180
3b00
1a00
1c00
2c00
6e00
c600
c700
ENDCHAR
STARTCHAR Y
ENCODING 89
SWIDTH 681 0
DWIDTH 9 0
BBX 7 9 2 0
BITMAP
c6
c6
cc
cc
d8
70
60
60
60
ENDCHAR
STARTCHAR Z
ENCODING 90
SWIDTH 687 0
DWIDTH 9 0
BBX 9 9 0 0
BITMAP
3f80
0380
0700
0e00
1c00
3800
7000
e000
fe00
ENDCHAR
STARTCHAR bracketleft
ENCODING 91
SWIDTH 386 0
DWIDTH 5 0
BBX 6 11 0 -1
BITMAP
3c
30
30
60
60
60
60
c0
c0
c0
f0
ENDCHAR
STARTCHAR backslash
ENCODING 92
SWIDTH 566 0
DWIDTH 7 0
BBX 5 11 1 -1
BITMAP
c0
c0
60
60
60
30
30
30
18
18
18
ENDCHAR
STARTCHAR bracketright
ENCODING 93
SWIDTH 386 0
DWIDTH 5 0
BBX 6 11 0 -1
BITMAP
3c
0c
0c
18
18
18
18
30
30
30
f0
ENDCHAR
STARTCHAR asciicircum
ENCODING 94
SWIDTH 687 0
DWIDTH 9 0
BBX 7 7 1 1
BITMAP
06
0e
16
26
66
c6
86
ENDCHAR
STARTCHAR underscore
ENCODING 95
SWIDTH 500 0
DWIDTH 9 0
BBX 7 1 1 -1
BITMAP
fe
ENDCHAR
STARTCHAR grave
ENCODING 96
SWIDTH 663 0
DWIDTH 8 0
BBX 3 2 3 8
BITMAP
c0
60
ENDCHAR
STARTCHAR a
ENCODING 97
SWIDTH 681 0
DWIDTH 8 0
BBX 7 7 1 0
BITMAP
3e
66
66
c6
cc
dc
ec
ENDCHAR
STARTCHAR b
ENCODING 98
SWIDTH 681 0
DWIDTH 8 0
BBX 7 10 1 0
BITMAP
30
30
30
6e
76
66
c6
cc
cc
f8
ENDCHAR
STARTCHAR c
ENCODING 99
SWIDTH 548 0
DWIDTH 7 0
BBX 6 7 1 0
BITMAP
38
6c
c0
c0
c0
c0
78
ENDCHAR
STARTCHAR d
ENCODING 100
SWIDTH 681 0
DWIDTH 8 0
BBX 8 10 1 0
BITMAP
03
03
03
3e
66
66
c6
cc
dc
6c
ENDCHAR
STARTCHAR e
ENCODING 101
SWIDTH 612 0
DWIDTH 8 0
BBX 7 7 1 0
BITMAP
3c
66
ce
f8
c0
cc
78
ENDCHAR
STARTCHAR f
ENCODING 102
SWIDTH 464 0
DWIDTH 6 0
BBX 7 12 1 -2
BITMAP
0e
18
18
7e
30
30
60
60
60
c0
c0
c0
ENDCHAR
STARTCHAR g
ENCODING 103
SWIDTH 674 0
DWIDTH 8 0
BBX 8 9 0 -2
BITMAP
1f
33
33
66
6e
76
06
cc
78
ENDCHAR
STARTCHAR h
ENCODING 104
SWIDTH 675 0
DWIDTH 8 0
BBX 7 10 1 0
BITMAP
30
30
30
6e
76
66
66
cc
cc
cc
ENDCHAR
STARTCHAR i
ENCODING 105
SWIDTH 343 0
DWIDTH 4 0
BBX 4 10 1 0
BITMAP
30
30
00
60
60
60
60
c0
c0
c0
ENDCHAR
STARTCHAR j
ENCODING 106
SWIDTH 407 0
DWIDTH 5 0
BBX 6 12 -1 -2
BITMAP
0c
0c
00
18
18
18
18
18
30
30
30
e0
ENDCHAR
STARTCHAR k
ENCODING 107
SWIDTH 666 0
DWIDTH 8 0
BBX 7 10 1 0
BITMAP
30
30
30
66
6c
78
70
d8
cc
c6
ENDCHAR
STARTCHAR l
ENCODING 108
SWIDTH 343 0
DWIDTH 4 0
BBX 4 10 1 0
BITMAP
30
30
30
60
60
60
60
c0
c0
c0
ENDCHAR
STARTCHAR m
ENCODING 109
SWIDTH 991 0
DWIDTH 12 0
BBX 11 7 1 0
BITMAP
6ee0
7760
6660
6660
ccc0
ccc0
ccc0
ENDCHAR
STARTCHAR n
ENCODING 110
SWIDTH 675 0
DWIDTH 8 0
BBX 7 7 1 0
BITMAP
6e
76
66
66
cc
cc
cc
ENDCHAR
STARTCHAR o
ENCODING 111
SWIDTH 663 0
DWIDTH 8 0
BBX 7 7 1 0
BITMAP
3c
66
c6
c6
c6
cc
78
ENDCHAR
STARTCHAR p
ENCODING 112
SWIDTH 681 0
DWIDTH 8 0
BBX 8 9 0 -2
BITMAP
36
3b
33
63
66
66
7c
c0
c0
ENDCHAR
STARTCHAR q
ENCODING 113
SWIDTH 681 0
DWIDTH 8 0
BBX 7 9 1 -2
BITMAP
3e
66
66
c6
cc
dc
6c
18
18
ENDCHAR
STARTCHAR r
ENCODING 114
SWIDTH 542 0
DWIDTH 7 0
BBX 6 7 1 0
BITMAP
6c
7c
60
e0
c0
c0
c0
ENDCHAR
STARTCHAR s
ENCODING 115
SWIDTH 527 0
DWIDTH 7 0
BBX 7 7 0 0
BITMAP
3c
66
70
38
1c
cc
78
ENDCHAR
STARTCHAR t
ENCODING 116
SWIDTH 437 0
DWIDTH 6 0
BBX 5 9 1 0
BITMAP
30
30
f8
60
60
c0
c0
c0
f0
ENDCHAR
STARTCHAR u
ENCODING 117
SWIDTH 675 0
DWIDTH 8 0
BBX 7 7 1 0
BITMAP
66
66
66
cc
cc
dc
6c
ENDCHAR
STARTCHAR v
ENCODING 118
SWIDTH 630 0
DWIDTH 8 0
BBX 6 7 2 0
BITMAP
cc
cc
c8
d8
d0
e0
c0
ENDCHAR
STARTCHAR w
ENCODING 119
SWIDTH 878 0
DWIDTH 11 0
BBX 9 7 2 0
BITMAP
c180
c980
c980
d900
db00
ee00
cc00
ENDCHAR
STARTCHAR x
ENCODING 120
SWIDTH 563 0
DWIDTH 8 0
BBX 9 7 0 0
BITMAP
3180
3900
1a00
1c00
2c00
4e00
c600
ENDCHAR
STARTCHAR y
ENCODING 121
SWIDTH 633 0
DWIDTH 8 0
BBX 8 9 0 -2
BITMAP
33
33
32
36
34
38
30
60
c0
ENDCHAR
STARTCHAR z
ENCODING 122
SWIDTH 630 0
DWIDTH 8 0
BBX 7 7 1 0
BITMAP
7e
0e
1c
38
70
e0
fc
ENDCHAR
STARTCHAR braceleft
ENCODING 123
SWIDTH 386 0
DWIDTH 5 0
BBX 5 11 0 -1
BITMAP
18
30
60
60
30
e0
30
60
c0
c0
60
ENDCHAR
STARTCHAR bar
ENCODING 124
SWIDTH 259 0
DWIDTH 5 0
BBX 4 11 1 -1
BITMAP
30
30
30
60
60
60
60
60
c0
c0
c0
ENDCHAR
STARTCHAR braceright
ENCODING 125
SWIDTH 386 0
DWIDTH 5 0
BBX 5 11 0 -1
BITMAP
30
18
18
30
60
38
60
30
30
60
c0
ENDCHAR
STARTCHAR asciitilde
ENCODING 126
SWIDTH 687 0
DWIDTH 9 0
BBX 7 3 1 3
BITMAP
72
fe
9c
ENDCHAR
STARTCHAR nobreakspace
ENCODING 160
SWIDTH 343 0
DWIDTH 4 0
BBX 1 1 0 0
BITMAP
00
ENDCHAR
STARTCHAR Aogonek
ENCODING 161
SWIDTH 771 0
DWIDTH 9 0
BBX 8 11 0 -2
BITMAP
03
07
0f
1b
33
3f
63
c3
c3
30
1c
ENDCHAR
STARTCHAR breve
ENCODING 162
SWIDTH 663 0
DWIDTH 8 0
BBX 5 2 3 8
BITMAP
88
70
ENDCHAR
STARTCHAR Lstroke
ENCODING 163
SWIDTH 623 0
DWIDTH 8 0
BBX 8 9 0 0
BITMAP
18
18
18
1e
38
f0
30
30
3f
ENDCHAR
STARTCHAR currency
ENCODING 164
SWIDTH 687 0
DWIDTH 8 0
BBX 10 9 0 0
BITMAP
30c0
1080
1f00
3300
3300
3300
3e00
4200
c300
ENDCHAR
STARTCHAR Lcaron
ENCODING 165
SWIDTH 750 0
DWIDTH 9 0
BBX 7 10 2 0
BITMAP
06
66
64
68
60
e0
c0
c0
c0
fc
ENDCHAR
STARTCHAR Sacute
ENCODING 166
SWIDTH 639 0
DWIDTH 8 0
BBX 7 12 1 0
BITMAP
0c
18
00
3c
66
60
70
38
1c
0c
cc
78
ENDCHAR
STARTCHAR section
ENCODING 167
SWIDTH 687 0
DWIDTH 8 0
BBX 7 10 1 -1
BITMAP
1c
36
30
78
4c
64
3c
18
d8
70
ENDCHAR
STARTCHAR diaeresis
ENCODING 168
SWIDTH 663 0
DWIDTH 8 0
BBX 4 2 3 8
BITMAP
90
90
ENDCHAR
STARTCHAR Scaron
ENCODING 169
SWIDTH 639 0
DWIDTH 8 0
BBX 7 12 1 0
BITMAP
2c
18
00
3c
66
60
70
38
1c
0c
cc
78
ENDCHAR
STARTCHAR Scedilla
ENCODING 170
SWIDTH 639 0
DWIDTH 8 0
BBX 7 11 1 -2
BITMAP
3c
66
60
70
38
1c
0c
cc
78
0c
38
ENDCHAR
STARTCHAR Tcaron
ENCODING 171
SWIDTH 747 0
DWIDTH 9 0
BBX 8 12 1 0
BITMAP
2c
18
00
ff
18
18
18
38
30
30
30
30
ENDCHAR
STARTCHAR Zacute
ENCODING 172
SWIDTH 687 0
DWIDTH 9 0
BBX 9 12 0 0
BITMAP
0300
0600
0000
3f80
0380
0700
0e00
1c00
3800
7000
e000
fe00
ENDCHAR
STARTCHAR hyphen
ENCODING 173
SWIDTH 289 0
DWIDTH 4 0
BBX 3 1 1 4
BITMAP
e0
ENDCHAR
STARTCHAR Zcaron
ENCODING 174
SWIDTH 687 0
DWIDTH 9 0
BBX 9 12 0 0
BITMAP
0b00
0600
0000
3f80
0380
0700
0e00
1c00
3800
7000
e000
fe00
ENDCHAR
STARTCHAR Zabovedot
ENCODING 175
SWIDTH 687 0
DWIDTH 9 0
BBX 9 12 0 0
BITMAP
0600
0600
0000
3f80
0380
0700
0e00
1c00
3800
7000
e000
fe00
ENDCHAR
STARTCHAR degree
ENCODING 176
SWIDTH 241 0
DWIDTH 3 0
BBX 4 3 0 6
BITMAP
60
b0
60
ENDCHAR
STARTCHAR aogonek
ENCODING 177
SWIDTH 681 0
DWIDTH 8 0
BBX 7 9 1 -2
BITMAP
3e
66
66
c6
cc
dc
ec
30
1c
ENDCHAR
STARTCHAR ogonek
ENCODING 178
SWIDTH 663 0
DWIDTH 8 0
BBX 4 2 2 -2
BITMAP
c0
70
ENDCHAR
STARTCHAR lstroke
ENCODING 179
SWIDTH 343 0
DWIDTH 5 0
BBX 6 10 0 0
BITMAP
18
18
18
30
3c
f0
30
60
60
60
ENDCHAR
STARTCHAR acute
ENCODING 180
SWIDTH 663 0
DWIDTH 8 0
BBX 3 2 3 8
BITMAP
60
c0
ENDCHAR
STARTCHAR lcaron
ENCODING 181
SWIDTH 666 0
DWIDTH 8 0
BBX 8 11 1 0
BITMAP
03
33
32
34
60
60
60
60
c0
c0
c0
ENDCHAR
STARTCHAR sacute
ENCODING 182
SWIDTH 527 0
DWIDTH 7 0
BBX 7 10 0 0
BITMAP
0c
18
00
3c
66
70
38
1c
cc
78
ENDCHAR
STARTCHAR caron
ENCODING 183
SWIDTH 663 0
DWIDTH 8 0
BBX 4 2 3 8
BITMAP
b0
60
ENDCHAR
STARTCHAR cedilla
ENCODING 184
SWIDTH 663 0
DWIDTH 8 0
BBX 4 2 1 -2
BITMAP
30
e0
ENDCHAR
STARTCHAR scaron
ENCODING 185
SWIDTH 527 0
DWIDTH 7 0
BBX 7 10 0 0
BITMAP
2c
18
00
3c
66
70
38
1c
cc
78
ENDCHAR
STARTCHAR scedilla
ENCODING 186
SWIDTH 527 0
DWIDTH 7 0
BBX 7 9 0 -2
BITMAP
3c
66
70
38
1c
cc
78
0c
38
ENDCHAR
STARTCHAR tcaron
ENCODING 187
SWIDTH 750 0
DWIDTH 9 0
BBX 8 12 1 0
BITMAP
03
03
02
34
30
f8
60
60
c0
c0
c0
f0
ENDCHAR
STARTCHAR zacute
ENCODING 188
SWIDTH 630 0
DWIDTH 8 0
BBX 7 10 1 0
BITMAP
0c
18
00
7e
0e
1c
38
70
e0
fc
ENDCHAR
STARTCHAR doubleacute
ENCODING 189
SWIDTH 663 0
DWIDTH 8 0
BBX 5 2 3 8
BITMAP
d8
90
ENDCHAR
STARTCHAR zcaron
ENCODING 190
SWIDTH 630 0
DWIDTH 8 0
BBX 7 10 1 0
BITMAP
2c
18
00
7e
0e
1c
38
70
e0
fc
ENDCHAR
STARTCHAR zabovedot
ENCODING 191
SWIDTH 630 0
DWIDTH 8 0
BBX 7 10 1 0
BITMAP
18
18
00
7e
0e
1c
38
70
e0
fc
ENDCHAR
STARTCHAR Racute
ENCODING 192
SWIDTH 708 0
DWIDTH 9 0
BBX 7 12 1 0
BITMAP
0c
18
00
7c
66
66
6c
f8
d8
cc
ce
c6
ENDCHAR
STARTCHAR Aacute
ENCODING 193
SWIDTH 771 0
DWIDTH 9 0
BBX 8 11 0 0
BITMAP
03
06
00
07
0f
1b
33
3f
63
c3
c3
ENDCHAR
STARTCHAR Acircumflex
ENCODING 194
SWIDTH 771 0
DWIDTH 9 0
BBX 9 11 0 0
BITMAP
0300
0580
0000
0700
0f00
1b00
3300
3f00
6300
c300
c300
ENDCHAR
STARTCHAR Abreve
ENCODING 195
SWIDTH 771 0
DWIDTH 9 0
BBX 9 12 0 0
BITMAP
0880
0700
0000
0300
0700
0f00
1b00
3300
3f00
6300
c300
c300
ENDCHAR
STARTCHAR Adiaeresis
ENCODING 196
SWIDTH 771 0
DWIDTH 9 0
BBX 8 11 0 0
BITMAP
09
09
00
07
0f
1b
33
3f
63
c3
c3
ENDCHAR
STARTCHAR Lacute
ENCODING 197
SWIDTH 623 0
DWIDTH 8 0
BBX 6 12 2 0
BITMAP
30
60
00
60
60
60
60
e0
c0
c0
c0
fc
ENDCHAR
STARTCHAR Cacute
ENCODING 198
SWIDTH 737 0
DWIDTH 9 0
BBX 8 12 1 0
BITMAP
06
0c
00
0e
3b
60
60
c0
c0
c0
e2
7c
ENDCHAR
STARTCHAR Ccedilla
ENCODING 199
SWIDTH 737 0
DWIDTH 9 0
BBX 8 11 1 -2
BITMAP
0e
3b
60
60
c0
c0
c0
e2
7c
18
70
ENDCHAR
STARTCHAR Ccaron
ENCODING 200
SWIDTH 737 0
DWIDTH 9 0
BBX 8 12 1 0
BITMAP
16
0c
00
0e
3b
60
60
c0
c0
c0
e2
7c
ENDCHAR
STARTCHAR Eacute
ENCODING 201
SWIDTH 642 0
DWIDTH 8 0
BBX 7 11 1 0
BITMAP
0c
18
00
7e
60
60
f8
c0
c0
c0
fc
ENDCHAR
STARTCHAR Eogonek
ENCODING 202
SWIDTH 642 0
DWIDTH 8 0
BBX 7 11 1 -2
BITMAP
7e
60
60
60
f8
c0
c0
c0
fc
30
1c
ENDCHAR
STARTCHAR Ediaeresis
ENCODING 203
SWIDTH 642 0
DWIDTH 8 0
BBX 7 11 1 0
BITMAP
24
24
00
7e
60
60
f8
c0
c0
c0
fc
ENDCHAR
STARTCHAR Ecaron
ENCODING 204
SWIDTH 642 0
DWIDTH 8 0
BBX 7 12 1 0
BITMAP
2c
18
00
7e
60
60
60
f8
c0
c0
c0
fc
ENDCHAR
STARTCHAR Iacute
ENCODING 205
SWIDTH 361 0
DWIDTH 5 0
BBX 4 11 1 0
BITMAP
30
60
00
60
60
60
e0
c0
c0
c0
c0
ENDCHAR
STARTCHAR Icircumflex
ENCODING 206
SWIDTH 361 0
DWIDTH 5 0
BBX 4 11 1 0
BITMAP
60
b0
00
60
60
60
e0
c0
c0
c0
c0
ENDCHAR
STARTCHAR Dcaron
ENCODING 207
SWIDTH 822 0
DWIDTH 10 0
BBX 9 12 1 0
BITMAP
1600
0c00
0000
7f00
6380
6180
6180
e180
c300
c300
ce00
f800
ENDCHAR
STARTCHAR Dstroke
ENCODING 208
SWIDTH 822 0
DWIDTH 10 0
BBX 10 9 0 0
BITMAP
3f80
31c0
30c0
30c0
fcc0
6180
6180
6700
7c00
ENDCHAR
STARTCHAR Nacute
ENCODING 209
SWIDTH 789 0
DWIDTH 10 0
BBX 8 12 1 0
BITMAP
06
0c
00
61
71
71
7b
5a
ce
8e
86
86
ENDCHAR
STARTCHAR Ncaron
ENCODING 210
SWIDTH 789 0
DWIDTH 10 0
BBX 8 12 1 0
BITMAP
16
0c
00
61
71
71
7b
5a
ce
8e
86
86
ENDCHAR
STARTCHAR Oacute
ENCODING 211
SWIDTH 855 0
DWIDTH 11 0
BBX 9 11 1 0
BITMAP
0300
0600
0000
0f00
3380
6180
6180
c300
c300
e600
7800
ENDCHAR
STARTCHAR Ocircumflex
ENCODING 212
SWIDTH 855 0
DWIDTH 11 0
BBX 9 11 1 0
BITMAP
0600
0b00
0000
0f00
3380
6180
6180
c300
c300
e600
7800
ENDCHAR
STARTCHAR Odoubleacute
ENCODING 213
SWIDTH 855 0
DWIDTH 11 0
BBX 9 12 1 0
BITMAP
0d80
0900
0000
0f00
3380
6180
6180
c180
c300
c300
e600
7800
ENDCHAR
STARTCHAR Odiaeresis
ENCODING 214
SWIDTH 855 0
DWIDTH 11 0
BBX 9 11 1 0
BITMAP
0900
0900
0000
0f00
3380
6180
6180
c300
c300
e600
7800
ENDCHAR
STARTCHAR multiply
ENCODING 215
SWIDTH 687 0
DWIDTH 9 0
BBX 8 7 1 1
BITMAP
63
36
3c
18
3c
6c
c6
ENDCHAR
STARTCHAR Rcaron
ENCODING 216
SWIDTH 708 0
DWIDTH 9 0
BBX 7 12 1 0
BITMAP
2c
18
00
7c
66
66
6c
f8
d8
cc
ce
c6
ENDCHAR
STARTCHAR Uring
ENCODING 217
SWIDTH 759 0
DWIDTH 9 0
BBX 8 13 1 0
BITMAP
0c
16
0c
00
63
63
63
63
e6
c6
c6
ec
78
ENDCHAR
STARTCHAR Uacute
ENCODING 218
SWIDTH 759 0
DWIDTH 9 0
BBX 8 11 1 0
BITMAP
06
0c
00
63
63
63
e6
c6
c6
ec
78
ENDCHAR
STARTCHAR Udoubleacute
ENCODING 219
SWIDTH 759 0
DWIDTH 9 0
BBX 8 12 1 0
BITMAP
1b
12
00
63
63
63
63
e6
c6
c6
ec
78
ENDCHAR
STARTCHAR Udiaeresis
ENCODING 220
SWIDTH 759 0
DWIDTH 9 0
BBX 8 11 1 0
BITMAP
12
12
00
63
63
63
e6
c6
c6
ec
78
ENDCHAR
STARTCHAR Yacute
ENCODING 221
SWIDTH 681 0
DWIDTH 9 0
BBX 7 11 2 0
BITMAP
0c
18
00
c6
c6
cc
d8
70
60
60
60
ENDCHAR
STARTCHAR Tcedilla
ENCODING 222
SWIDTH 747 0
DWIDTH 9 0
BBX 8 11 1 -2
BITMAP
ff
18
18
18
38
30
30
30
30
0c
38
ENDCHAR
STARTCHAR ssharp
ENCODING 223
SWIDTH 708 0
DWIDTH 9 0
BBX 8 11 1 -1
BITMAP
1e
33
33
66
6c
66
66
c6
c6
dc
c0
ENDCHAR
STARTCHAR racute
ENCODING 224
SWIDTH 542 0
DWIDTH 7 0
BBX 6 10 1 0
BITMAP
0c
18
00
6c
7c
60
e0
c0
c0
c0
ENDCHAR
STARTCHAR aacute
ENCODING 225
SWIDTH 681 0
DWIDTH 8 0
BBX 7 10 1 0
BITMAP
0c
18
00
3e
66
66
c6
cc
dc
ec
ENDCHAR
STARTCHAR acircumflex
ENCODING 226
SWIDTH 681 0
DWIDTH 8 0
BBX 7 10 1 0
BITMAP
0c
16
00
3e
66
66
c6
cc
dc
ec
ENDCHAR
STARTCHAR abreve
ENCODING 227
SWIDTH 681 0
DWIDTH 8 0
BBX 7 10 1 0
BITMAP
44
38
00
3e
66
66
c6
cc
dc
ec
ENDCHAR
STARTCHAR adiaeresis
ENCODING 228
SWIDTH 681 0
DWIDTH 8 0
BBX 7 10 1 0
BITMAP
12
12
00
3e
66
66
c6
cc
dc
ec
ENDCHAR
STARTCHAR lacute
ENCODING 229
SWIDTH 343 0
DWIDTH 4 0
BBX 6 13 1 0
BITMAP
0c
18
00
30
30
30
60
60
60
60
c0
c0
c0
ENDCHAR
STARTCHAR cacute
ENCODING 230
SWIDTH 548 0
DWIDTH 7 0
BBX 6 10 1 0
BITMAP
0c
18
00
38
6c
c0
c0
c0
c0
78
ENDCHAR
STARTCHAR ccedilla
ENCODING 231
SWIDTH 548 0
DWIDTH 7 0
BBX 6 9 1 -2
BITMAP
38
6c
c0
c0
c0
c0
78
30
e0
ENDCHAR
STARTCHAR ccaron
ENCODING 232
SWIDTH 548 0
DWIDTH 7 0
BBX 6 10 1 0
BITMAP
2c
18
00
38
6c
c0
c0
c0
c0
78
ENDCHAR
STARTCHAR eacute
ENCODING 233
SWIDTH 612 0
DWIDTH 8 0
BBX 7 10 1 0
BITMAP
0c
18
00
3c
66
ce
f8
c0
cc
78
ENDCHAR
STARTCHAR eogonek
ENCODING 234
SWIDTH 612 0
DWIDTH 8 0
BBX 7 9 1 -2
BITMAP
3c
66
ce
f8
c0
cc
78
30
1c
ENDCHAR
STARTCHAR ediaeresis
ENCODING 235
SWIDTH 612 0
DWIDTH 8 0
BBX 7 10 1 0
BITMAP
24
24
00
3c
66
ce
f8
c0
cc
78
ENDCHAR
STARTCHAR ecaron
ENCODING 236
SWIDTH 612 0
DWIDTH 8 0
BBX 7 10 1 0
BITMAP
2c
18
00
3c
66
ce
f8
c0
cc
78
ENDCHAR
STARTCHAR iacute
ENCODING 237
SWIDTH 343 0
DWIDTH 4 0
BBX 4 10 1 0
BITMAP
30
60
00
60
60
60
60
c0
c0
c0
ENDCHAR
STARTCHAR icircumflex
ENCODING 238
SWIDTH 343 0
DWIDTH 4 0
BBX 4 10 1 0
BITMAP
60
b0
00
60
60
60
60
c0
c0
c0
ENDCHAR
STARTCHAR dcaron
ENCODING 239
SWIDTH 1000 0
DWIDTH 12 0
BBX 12 11 1 0
BITMAP
0030
0330
0320
0340
3e00
6600
6600
c600
cc00
dc00
6c00
ENDCHAR
STARTCHAR dstroke
ENCODING 240
SWIDTH 916 0
DWIDTH 11 0
BBX 11 10 1 0
BITMAP
0300
1fe0
0300
3e00
6600
6600
c600
cc00
dc00
6c00
ENDCHAR
STARTCHAR nacute
ENCODING 241
SWIDTH 675 0
DWIDTH 8 0
BBX 7 10 1 0
BITMAP
0c
18
00
6e
76
66
66
cc
cc
cc
ENDCHAR
STARTCHAR ncaron
ENCODING 242
SWIDTH 675 0
DWIDTH 8 0
BBX 7 10 1 0
BITMAP
2c
18
00
6e
76
66
66
cc
cc
cc
ENDCHAR
STARTCHAR oacute
ENCODING 243
SWIDTH 663 0
DWIDTH 8 0
BBX 7 10 1 0
BITMAP
0c
18
00
3c
66
c6
c6
c6
cc
78
ENDCHAR
STARTCHAR ocircumflex
ENCODING 244
SWIDTH 663 0
DWIDTH 8 0
BBX 7 10 1 0
BITMAP
38
6c
00
3c
66
c6
c6
c6
cc
78
ENDCHAR
STARTCHAR odoubleacute
ENCODING 245
SWIDTH 663 0
DWIDTH 8 0
BBX 7 10 1 0
BITMAP
36
24
00
3c
66
c6
c6
c6
cc
78
ENDCHAR
STARTCHAR odiaeresis
ENCODING 246
SWIDTH 663 0
DWIDTH 8 0
BBX 7 10 1 0
BITMAP
24
24
00
3c
66
c6
c6
c6
cc
78
ENDCHAR
STARTCHAR division
ENCODING 247
SWIDTH 687 0
DWIDTH 9 0
BBX 7 7 1 1
BITMAP
18
18
00
fe
00
30
30
ENDCHAR
STARTCHAR rcaron
ENCODING 248
SWIDTH 542 0
DWIDTH 7 0
BBX 6 10 1 0
BITMAP
2c
18
00
6c
7c
60
e0
c0
c0
c0
ENDCHAR
STARTCHAR uring
ENCODING 249
SWIDTH 675 0
DWIDTH 8 0
BBX 7 11 1 0
BITMAP
18
2c
18
00
66
66
66
cc
cc
dc
6c
ENDCHAR
STARTCHAR uacute
ENCODING 250
SWIDTH 675 0
DWIDTH 8 0
BBX 7 10 1 0
BITMAP
0c
18
00
66
66
66
cc
cc
dc
6c
ENDCHAR
STARTCHAR udoubleacute
ENCODING 251
SWIDTH 675 0
DWIDTH 8 0
BBX 7 10 1 0
BITMAP
36
24
00
66
66
66
cc
cc
dc
6c
ENDCHAR
STARTCHAR udiaeresis
ENCODING 252
SWIDTH 675 0
DWIDTH 8 0
BBX 7 10 1 0
BITMAP
24
24
00
66
66
66
cc
cc
dc
6c
ENDCHAR
STARTCHAR yacute
ENCODING 253
SWIDTH 633 0
DWIDTH 8 0
BBX 8 12 0 -2
BITMAP
06
0c
00
33
33
32
36
34
38
30
60
c0
ENDCHAR
STARTCHAR tcedilla
ENCODING 254
SWIDTH 437 0
DWIDTH 6 0
BBX 5 11 1 -2
BITMAP
30
30
f8
60
60
c0
c0
c0
f0
18
70
ENDCHAR
STARTCHAR abovedot
ENCODING 255
SWIDTH 663 0
DWIDTH 8 0
BBX 2 2 4 8
BITMAP
c0
c0
ENDCHAR
ENDFONT
